<svg xmlns="http://www.w3.org/2000/svg" viewBox="0 0 200 64.34"><defs><style>.cls-1{fill:#fff;}</style></defs><title>logo_hellocse_white_1</title><g id="Calque_2" data-name="Calque 2"><g id="Calque_1-2" data-name="Calque 1"><path class="cls-1" d="M105.53,31.59a5.33,5.33,0,0,1,0-.56,4.38,4.38,0,0,1,0-.52A2.7,2.7,0,0,1,107,28.46q-.08-.39-.15-.72l-.06-.19c0-.14-.08-.28-.12-.4a1.67,1.67,0,0,1-.08-.2c0-.1-.09-.2-.14-.29a.86.86,0,0,0-.1-.16,1.07,1.07,0,0,0-.15-.22l-.12-.13-.17-.15-.14-.09-.2-.09-.17-.05-.23,0-.19,0h-.08l-.32,0c-4,.41-6.4,10.69-5.84,16.16,0,.22,0,.43.07.63l0,.18c0,.13,0,.26,0,.38s0,.14,0,.2l.06.31c0,.07,0,.13,0,.2l.06.26a1.21,1.21,0,0,1,0,.18c0,.07.05.15.08.22a.75.75,0,0,0,0,.16c0,.07.06.14.08.2l.06.14.1.17.06.11.12.17.06.08a1.8,1.8,0,0,0,.19.2h0l.2.15.07,0,.16.08.1,0,.16,0,.11,0,.17,0,.13,0h.45l.53,0h0a4.17,4.17,0,0,0,2.82-2.21c1.37-2.17,2.33-5.76,2.47-9.89C106.27,33.83,105.68,33,105.53,31.59Z"/><path class="cls-1" d="M54.62,35.27a8.49,8.49,0,0,0,.12-2.52c0-.17,0-.33-.07-.48l0-.14-.06-.29,0-.15a1.55,1.55,0,0,0-.08-.23l-.06-.13c0-.06-.07-.13-.1-.18L54.2,31a.81.81,0,0,0-.12-.14l-.1-.08a1.19,1.19,0,0,0-.15-.09l-.12-.06-.17,0-.15,0h-.28a2.71,2.71,0,0,0-1.5.73,6.3,6.3,0,0,0-.9,1,20.22,20.22,0,0,0-2.64,7c-.22,1-.38,2.11-.5,3.15a8.14,8.14,0,0,0,4.29-2.23A9.62,9.62,0,0,0,54.62,35.27Z"/><path class="cls-1" d="M196.27,0h-.07l-.31,0-24,2.17a3.72,3.72,0,0,0-3.17,2.41c-.37-.17-.75-.33-1.14-.47A19.05,19.05,0,0,0,164,3.2a20.45,20.45,0,0,0-3.88-.27,24.92,24.92,0,0,0-4,.42,19.8,19.8,0,0,0-6.65,2.45,18.35,18.35,0,0,0-4.1,3.34c-.34-.23-.68-.44-1-.64a19.35,19.35,0,0,0-3.85-1.66,22.9,22.9,0,0,0-4.3-.86,24.42,24.42,0,0,0-4.84,0,25.52,25.52,0,0,0-9.17,2.52A23.83,23.83,0,0,0,115,14a23.53,23.53,0,0,0-4.12,6.53,10.27,10.27,0,0,0-6.06-1.86c-.47,0-1,0-1.45.08-6.13.63-10.9,4.1-13.84,10.05L91.17,13.5a3.74,3.74,0,0,0-4.59-4l-8.15,2A3.75,3.75,0,0,0,76,13.26a3.6,3.6,0,0,0-1-1.44A3.76,3.76,0,0,0,71.68,11l-8.14,2a3.72,3.72,0,0,0-2.84,3.23L59.65,25.8a9.45,9.45,0,0,0-6-1.91A15.4,15.4,0,0,0,52,24a16.16,16.16,0,0,0-9.23,4L44,16a3.27,3.27,0,0,0,0-.54,3.75,3.75,0,0,0-3.73-3.74h-.07l-.35,0-8,.83A4.45,4.45,0,0,0,29.27,14a4.5,4.5,0,0,0-1.1,2.65v.22a3.8,3.8,0,0,0-.05-.7,3.41,3.41,0,0,0-1-1.75,4.19,4.19,0,0,0-3-1H24c-.78,0-1.59,0-2.56.14C10.66,14.64-1,24,.07,34.42c.51,5,3.86,7.95,9,7.95l.66,0L7.76,60.2a3.76,3.76,0,0,0,3.72,4.14l.38,0,8-.83a4.67,4.67,0,0,0,3.74-3.41l.31-.77a3.81,3.81,0,0,0,1.12,2.26,3.68,3.68,0,0,0,3,1.08l8-.83a3.74,3.74,0,0,0,3.33-3.31l.07-.62c2.4,2.17,5.78,3.1,9.78,2.69a18.51,18.51,0,0,0,10.81-4.92,9.17,9.17,0,0,0,7,3,11.71,11.71,0,0,0,1.19-.06,14.11,14.11,0,0,0,7.88-3.41A9.18,9.18,0,0,0,82,57.16c.39,0,.79,0,1.19-.06a14.12,14.12,0,0,0,8.37-3.85,13.14,13.14,0,0,0,9.15,2c5.65-.58,10.34-4.38,12.88-10.31a19.52,19.52,0,0,0,1.8,1.95,19.07,19.07,0,0,0,7.41,4.26,23.3,23.3,0,0,0,9.37.8,25.88,25.88,0,0,0,9.59-2.75A21.17,21.17,0,0,0,145.16,47a15.87,15.87,0,0,0,2.25,1,22.28,22.28,0,0,0,4,1.08,23.24,23.24,0,0,0,4.19.37h.06A22.53,22.53,0,0,0,160,49a20.75,20.75,0,0,0,6.75-2.53,19.65,19.65,0,0,0,2.2-1.55,3.73,3.73,0,0,0,3.66,1.93l23.82-2.42a3.72,3.72,0,0,0,3.36-3.69l.05-6.55a3.77,3.77,0,0,0-1.22-2.78,3.73,3.73,0,0,0-2.89-1l-11.06,1.1V30.29l8.29-.81a3.73,3.73,0,0,0,3.38-3.7l0-6.35a3.71,3.71,0,0,0-1.21-2.78,3.75,3.75,0,0,0-2.53-1h-.35l-7.58.73V15.22l11.89-1.1a3.73,3.73,0,0,0,3.39-3.7L200,3.91V3.74A3.75,3.75,0,0,0,196.27,0ZM37.84,38.66l-1.06,9.85-1,9.6-8,.82L30,37.49l-8.2.85L19.51,59.77l-8,.83,4.19-38.77a12.07,12.07,0,0,0-6.58,9.81c0,.33-.06.67-.07,1a17.18,17.18,0,0,0,.09,2.13,9.93,9.93,0,0,0,.44,2.27,3.44,3.44,0,0,0,.17.46c.23.54.45.8.56,1-.41,0-.81.06-1.19.07H8.42l-.22,0-.34,0-.21,0-.32-.06-.2-.05-.29-.09-.19-.06-.29-.12-.16-.07a3.07,3.07,0,0,1-.31-.17l-.1-.06c-.13-.09-.26-.18-.38-.28l-.08-.07a3.07,3.07,0,0,1-.26-.25A.69.69,0,0,1,5,37.11c-.07-.07-.13-.15-.2-.23l-.1-.17a2.13,2.13,0,0,1-.16-.25,1.62,1.62,0,0,1-.1-.18A2.55,2.55,0,0,1,4.27,36l-.09-.2c0-.1-.07-.21-.11-.32L4,35.26l-.09-.39c0-.07,0-.13,0-.19s-.07-.42-.09-.64C3,26.18,12.53,18.2,21.8,17.25c.83-.09,1.57-.1,2.3-.12l-1.87,17,8.2-.84,1.87-17,8-.82Zm106,4.46-.36.34-.34.31a14.34,14.34,0,0,1-1.5,1.17A17.33,17.33,0,0,1,140,46a18.76,18.76,0,0,1-3.78,1.51c-.69.19-1.4.36-2.13.5s-1.51.24-2.3.32c-.4,0-.78.07-1.17.09l-.37,0-.77,0h-.35c-.34,0-.69,0-1,0l-.31,0c-.41,0-.82-.07-1.22-.13l-.23,0-1-.19-.32-.07c-.38-.09-.76-.18-1.13-.3h0a16.33,16.33,0,0,1-3.24-1.4,14.8,14.8,0,0,1-2.74-2,15.22,15.22,0,0,1-2.2-2.59,17.3,17.3,0,0,1-1.65-3.14,20.88,20.88,0,0,1-1.39-6.58,7.54,7.54,0,0,1-.8.68c.5,10.88-4.55,18.28-11.58,19q-.37,0-.75.06h-.73c-.23,0-.45,0-.67,0H98l-.45,0-.24,0-.39-.06-.25,0-.36-.08L96,51.31l-.36-.11-.22-.07L95.1,51l-.19-.08-.46-.22-.07,0a4.94,4.94,0,0,1-.49-.3l-.15-.11L93.42,50l-.17-.15L93,49.6l-.17-.18-.25-.26L92.41,49a3.55,3.55,0,0,1-.23-.31,1.43,1.43,0,0,1-.14-.2c-.08-.11-.15-.24-.23-.36l-.1-.18a5.59,5.59,0,0,1-.3-.6,12.86,12.86,0,0,1-2.7,3.45,10.29,10.29,0,0,1-1.15.9A10.65,10.65,0,0,1,84.74,53a10.79,10.79,0,0,1-1.5.33l-.45.05a5.63,5.63,0,0,1-.71,0h-.45l-.29,0-.21,0-.28,0-.2,0-.3-.07-.16,0-.37-.12-.08,0-.43-.19-.12-.07-.29-.17-.15-.1-.23-.17-.16-.12L78.15,52,78,51.86c-.06-.07-.13-.13-.19-.21l-.14-.16-.18-.24-.13-.18-.16-.26a2,2,0,0,1-.11-.2,1.4,1.4,0,0,1-.15-.3,1.24,1.24,0,0,1-.1-.2,3.84,3.84,0,0,1-.14-.36l-.08-.18L76.44,49a12.87,12.87,0,0,1-2.68,3.37,12.48,12.48,0,0,1-1.14.88,10.36,10.36,0,0,1-2.26,1.13,9.45,9.45,0,0,1-1,.31l-.5.11c-.32.06-.63.1-.91.13a6.06,6.06,0,0,1-.73,0h-.56c-.12,0-.24,0-.35,0l-.22,0-.39-.08-.15,0L65,54.6l-.09,0-.41-.17-.17-.1-.3-.17L63.82,54l-.27-.19-.18-.15-.23-.22a1.54,1.54,0,0,1-.17-.19L62.75,53l-.15-.21-.2-.28c0-.08-.09-.15-.14-.23s-.11-.21-.17-.32L62,51.71l-.15-.36-.1-.27c0-.13-.09-.27-.13-.41s-.05-.18-.08-.28-.07-.33-.11-.5,0-.16,0-.25c0-.26-.08-.53-.11-.81,0-.1,0-.2,0-.3l-.52.77A21.13,21.13,0,0,1,59,51.49l-.64.69a16.24,16.24,0,0,1-3.69,2.87,13.29,13.29,0,0,1-1.74.84A14.67,14.67,0,0,1,51,56.5a17,17,0,0,1-2.08.36l-.87.06h-1.2l-.49,0-.35,0-.48-.07-.33-.07c-.16,0-.32-.08-.47-.12l-.29-.08-.52-.2-.2-.08a6,6,0,0,1-.67-.34l-.16-.1-.46-.31-.22-.18L41.86,55l-.22-.23-.3-.34-.21-.26c-.09-.13-.18-.25-.26-.38s-.13-.2-.19-.3-.16-.28-.23-.42a3.54,3.54,0,0,1-.16-.34c-.07-.15-.14-.31-.2-.47S40,52,40,51.88s-.12-.36-.17-.55-.07-.24-.1-.37-.1-.43-.15-.66-.05-.22-.07-.33c-.06-.35-.11-.71-.15-1.09l0-.34a22,22,0,0,1-.06-2.35c0-.49,0-1,.07-1.52a28.24,28.24,0,0,1,1-5.52c.2-.67.42-1.33.67-2s.45-1.1.72-1.63A16.77,16.77,0,0,1,42.54,34c.32-.5.66-1,1-1.45a12.44,12.44,0,0,1,1.19-1.32,12.16,12.16,0,0,1,5.57-3.15,14.19,14.19,0,0,1,2-.37l.8-.05h1l.41,0,.29,0,.38.07.25.05.38.11.18.06c.18.07.35.14.51.22l.06,0,.39.23.14.11.25.19a1.85,1.85,0,0,1,.14.14l.21.2.13.15.16.22.12.17c0,.07.09.15.14.23l.09.18.12.25.08.18.09.27c0,.06,0,.12.07.19s0,.19.07.29a1.21,1.21,0,0,1,0,.18l.06.33,0,.16c0,.16.05.32.07.49a9.65,9.65,0,0,1-.43,4,10.62,10.62,0,0,1-.4,1.07,12,12,0,0,1-1.86,2.91A14.08,14.08,0,0,1,54.65,42c-.31.26-.63.5-1,.73s-.68.45-1,.65a15.18,15.18,0,0,1-2.23,1.06,15.58,15.58,0,0,1-3,.82c0,.79.05,1.57.12,2.24,0,.23,0,.44.08.64l0,.19c0,.13,0,.27.07.39s0,.14,0,.2a3,3,0,0,0,.08.32,1.05,1.05,0,0,0,.05.19,2.31,2.31,0,0,0,.1.28l.06.17c0,.09.07.17.11.25l.07.15c0,.08.09.15.13.22a.75.75,0,0,1,.07.12l.19.24,0,0a3,3,0,0,0,.25.25l.07.05.21.15.1.06.19.1.13.05.2.08.14,0,.21.05.15,0,.24,0h.61c.27,0,.56,0,.87,0a10.23,10.23,0,0,0,3.61-1.05,9.14,9.14,0,0,0,1.2-.73,11.46,11.46,0,0,0,1.1-.88,13.85,13.85,0,0,0,1-1c.5-.53,1-1.11,1.44-1.72.31-.41.61-.83.92-1.26h0l3.1-28.57,8.14-2L69.23,45.41a9.73,9.73,0,0,0-.07,1,7,7,0,0,0,0,.81,3.21,3.21,0,0,0,.09.5c0,.05,0,.1,0,.14s.06.2.09.28,0,.09.07.13a1.37,1.37,0,0,0,.13.2l.09.11a.75.75,0,0,0,.16.15l.11.08.2.1.13.06.27.06.12,0a2.94,2.94,0,0,0,.44,0h0l.53,0h0a3.66,3.66,0,0,0,1.55-.54,4.72,4.72,0,0,0,.69-.51,6.64,6.64,0,0,0,.92-1,8.57,8.57,0,0,0,.73-1.3,10.42,10.42,0,0,0,.37-1c.1-.34.19-.69.26-1h0l3.1-28.57,8.14-2L84.13,43.88a8.06,8.06,0,0,0,0,1.81c0,.19,0,.35.08.5s0,.1,0,.14a1.15,1.15,0,0,0,.09.28s0,.09.07.13l.12.2a.52.52,0,0,0,.1.11l.15.15.12.08.2.1.07,0h0l.06,0,.27.06.11,0,.45,0h0l.54,0h0a3.14,3.14,0,0,0,.61-.12A5.67,5.67,0,0,0,90.53,44c0-.11,0-.21,0-.32-.66-6.41,1.77-20.08,13.27-21.26a7.66,7.66,0,0,1,1-.05c.13,0,.26,0,.38,0h.3l.41,0,.28,0,.41.08.23.05.52.16.09,0a5.55,5.55,0,0,1,.56.24l.19.11.34.2.2.14a3.15,3.15,0,0,1,.29.22l.2.18a2.84,2.84,0,0,1,.26.24l.19.2.23.27.17.24q.1.13.21.3c0,.08.1.17.16.25l.18.34a2.44,2.44,0,0,1,.14.28c.06.12.12.25.17.38a2.52,2.52,0,0,1,.12.29c.06.14.11.28.16.43s.07.19.1.29.1.34.14.52a2.5,2.5,0,0,1,.07.26q.1.4.18.84a3.68,3.68,0,0,0,1.15-.75,23.73,23.73,0,0,1,.42-2.7c.1-.44.21-.88.34-1.31s.26-.85.41-1.27q.34-.93.75-1.8a19.71,19.71,0,0,1,9.22-9.33,21.85,21.85,0,0,1,7.84-2.15c.36,0,.71-.06,1.06-.07h.33l.7,0,.68,0h.34c.34,0,.67,0,1,.08a19.78,19.78,0,0,1,3.6.72,15,15,0,0,1,3.08,1.32,13.77,13.77,0,0,1,1.73,1.17c.27.21.53.42.77.64l-2.16,3.1L142,17.8a5.17,5.17,0,0,1-.68.73,1.38,1.38,0,0,1-.48.26,2.25,2.25,0,0,1-.63.14,2.29,2.29,0,0,1-.37,0h-.13a1.49,1.49,0,0,1-.4-.11,8.77,8.77,0,0,1-.9-.42l-.5-.26-.55-.29a6.24,6.24,0,0,0-.63-.28c-.22-.09-.47-.17-.73-.25a11.32,11.32,0,0,0-1.83-.34l-.53,0h-1.22l-.71.05a10.53,10.53,0,0,0-4.06,1.19,8.7,8.7,0,0,0-.89.53A10,10,0,0,0,125.22,20c-.24.25-.47.52-.69.79a12,12,0,0,0-2,4,17.3,17.3,0,0,0-.65,5.21,14.49,14.49,0,0,0,.9,5.08A10.07,10.07,0,0,0,125,38.68a8.3,8.3,0,0,0,3.27,2c.28.09.57.16.85.23l.26,0,.65.1.26,0a8.7,8.7,0,0,0,.89,0h0a9.23,9.23,0,0,0,1,0,20.39,20.39,0,0,0,2.21-.33,11,11,0,0,0,1.86-.58A8.26,8.26,0,0,0,138,39.3,12.2,12.2,0,0,0,139.49,38a3.16,3.16,0,0,1,.68-.49,2,2,0,0,1,.37-.17,2.7,2.7,0,0,1,.39-.08h.22a1.93,1.93,0,0,1,.41.06,1.6,1.6,0,0,1,.61.33l2.46,2.28,1.08,1A16.48,16.48,0,0,1,143.84,43.12ZM171.32,33a13.53,13.53,0,0,1-.44,2.45,12.94,12.94,0,0,1-1.18,2.82,12,12,0,0,1-1,1.57,13.72,13.72,0,0,1-3.9,3.43c-.4.24-.81.46-1.24.67a18.8,18.8,0,0,1-7.88,1.75h-.93l-.55,0-.35,0-.63-.06-.26,0-.87-.14c-.59-.1-1.16-.23-1.72-.38-.28-.07-.55-.15-.82-.24l-.8-.28-.77-.31q-.61-.28-1.17-.6c-.3-.18-.59-.36-.87-.56l1.74-3.65.41-.88a3.55,3.55,0,0,1,.32-.47,3.28,3.28,0,0,1,.42-.41,2.7,2.7,0,0,1,.5-.33,2.62,2.62,0,0,1,.56-.18,2.28,2.28,0,0,1,.45,0h.13a2.58,2.58,0,0,1,.38,0l.14,0a2.46,2.46,0,0,1,.51.15l1.88.72a12.26,12.26,0,0,0,1.73.5l.64.12a4.48,4.48,0,0,0,.64.07H157l.59,0,.28,0c.3,0,.61-.08.93-.14a8.59,8.59,0,0,0,2.06-.67,5.06,5.06,0,0,0,1.49-1.08,3.57,3.57,0,0,0,.7-1.09,4.85,4.85,0,0,0,.31-1.88c0-.18,0-.36,0-.55a3,3,0,0,0-.57-1.59,2.11,2.11,0,0,0-.35-.38A3.36,3.36,0,0,0,162,31a5.22,5.22,0,0,0-1.59-.67l-.62-.14a18.11,18.11,0,0,0-2.12-.29c-.51,0-1-.08-1.55-.14l-1.6-.17a20.36,20.36,0,0,1-3.18-.64,8,8,0,0,1-1.5-.57,6.8,6.8,0,0,1-.7-.38c-.23-.14-.45-.29-.67-.45a7.14,7.14,0,0,1-1.2-1.14,8.42,8.42,0,0,1-1-1.47,8.57,8.57,0,0,1-.76-1.89,15.37,15.37,0,0,1-.43-2.38,10.66,10.66,0,0,1,.12-3,12.42,12.42,0,0,1,.31-1.31,11.86,11.86,0,0,1,1.85-3.67c.09-.13.18-.27.29-.4A14.06,14.06,0,0,1,151.42,9a16.15,16.15,0,0,1,5.41-2,21,21,0,0,1,3.38-.35h.52c.42,0,.83,0,1.24,0l.18,0c.42,0,.83.09,1.24.15a16,16,0,0,1,2.86.75,10.81,10.81,0,0,1,2.42,1.24l-1.75,4.43a3.68,3.68,0,0,1-.71,1.08,2,2,0,0,1-1.06.51,1.34,1.34,0,0,1-.35,0h-.11l-.3,0h-.12l-.43-.12-1.62-.54a11.85,11.85,0,0,0-2-.46,7,7,0,0,0-.81-.06h-.22l-.51,0-.24,0c-.25,0-.51.06-.78.11a6,6,0,0,0-3.54,1.74,3.85,3.85,0,0,0-.91,3,2.37,2.37,0,0,0,.91,1.74,5.72,5.72,0,0,0,2,.92,18.31,18.31,0,0,0,2.77.47c1,.11,2.09.25,3.17.41a26.55,26.55,0,0,1,3.18.71,9.18,9.18,0,0,1,1.49.57,9.06,9.06,0,0,1,1.35.8,7.6,7.6,0,0,1,1.64,1.66,6.78,6.78,0,0,1,.5.77,9.21,9.21,0,0,1,1.1,3.81A14.17,14.17,0,0,1,171.32,33Zm24.9-22.62-15.28,1.41,0,8.71,11.68-1.11,0,6.35L180.9,26.89l0,8.81,15.18-1.51,0,6.54L172.2,43.15V5.91l24.07-2.17Zm2.53-6.66Z"/></g></g></svg>